# xmcd CD database file generated by Grip 2.96
# 
# Track frame offsets:
#       150
#       12075
#       26415
#       42690
#       53862
#       70550
#       84960
#       101828
#       122828
#       140641
#       155818
#       169277
#       180602
#       197560
#       214868
#       231218
# 
# Disc length: 3283 seconds
# 
# Revision: 0
# Processed by: cddbd v1.5PL3 Copyright (c) Steve Scherf et al.
# Submitted via: Grip 2.96
# 
DISCID=e00cd110
DTITLE=Jon Winterburn - Jon Winterburn
DYEAR=1900
DGENRE=
TTITLE0=Downtown Blues (Frank Stokes)
TTITLE1=Nehi Mama Blues - Stomp That Thing (Frank Stokes)
TTITLE2=Screamin' and Hollerin' the Blues (Charley Patton)
TTITLE3=Mr. Crump Don't Like It (Frank Stokes)
TTITLE4=Blind Arthur's Breakdown (Blind Blake)
TTITLE5=Me and the Devil Blues (Robert Johnson)
TTITLE6=Guitar Rag (Sylvester Weaver)
TTITLE7=Long-Haired Woman Blues (Winterburn)
TTITLE8=Lost Woman Blues (Winterburn)
TTITLE9=Ain't No Tellin' Blues (Mississippi John Hurt)
TTITLE10=Come on Around To My House Mama (Blind Willie McTell)
TTITLE11=Memphis Rounder's Blues (Frank Stokes)
TTITLE12=T'ain't Nobody's Business If I Do (Frank Stokes)
TTITLE13=Cryin' Over You Blues (Winterburn)
TTITLE14=Cincinnati Flow Rag (Reverend Gary Davis)
TTITLE15=Buck Dancer's Choice (Sam McGee)
EXTD=
EXTT0=
EXTT1=
EXTT2=
EXTT3=
EXTT4=
EXTT5=
EXTT6=
EXTT7=
EXTT8=
EXTT9=
EXTT10=
EXTT11=
EXTT12=
EXTT13=
EXTT14=
EXTT15=
PLAYORDER=
